<?xml version="1.0" encoding="UTF-8" standalone="no"?>
<!-- Created with Inkscape (http://www.inkscape.org/) -->
<svg
   xmlns:svg="http://www.w3.org/2000/svg"
   xmlns="http://www.w3.org/2000/svg"
   version="1.0"
   width="761.52753"
   height="192.22441"
   id="svg6640"
   xml:space="preserve"><defs
     id="defs6643"><clipPath
       id="clipPath6681"><path
         d="M 165.579,842.04 L 590.775,842.04 L 590.775,642.047 L 165.579,642.047 L 165.579,842.04 z"
         id="path6683" /></clipPath></defs><g
     transform="matrix(1.25,0,0,-1.25,-2.3494291,1048.0504)"
     id="g6649"><g
       transform="matrix(4.9640925,0,0,4.9640925,-1632.2204,-2174.7375)"
       id="g6689"><path
         d="M 355.053,582.001 C 355.053,580.144 353.503,578.638 352.334,578.638 L 339.134,578.638 L 355.738,605.159 L 333.537,605.159 L 333.537,600.765 L 334.678,600.765 C 334.678,602.622 335.88,604.127 337.049,604.127 L 348.455,604.127 L 331.754,577.607 L 355.837,577.607 L 355.838,582.001 L 355.053,582.001"
         id="path6653"
         style="fill:#000000;fill-opacity:1;fill-rule:nonzero;stroke:none" /><path
         d="M 374.403,578.468 C 376.014,578.468 377.58,579.135 377.228,579.753 L 374.141,585.876 L 363.28,585.876 L 360.449,579.736 C 360.151,579.047 361.394,578.468 362.559,578.468 L 362.559,577.607 L 356.293,577.607 L 356.293,578.468 C 357.903,578.468 359.036,579.174 359.243,579.731 L 371.014,605.159 L 383.86,579.753 C 384.271,579.085 385.475,578.468 387.449,578.468 L 387.446,577.607 L 374.403,577.607 L 374.403,578.468 z M 363.752,586.869 L 368.451,597.181 L 373.697,586.869 L 363.752,586.869"
         id="path6655"
         style="fill:#000000;fill-opacity:1;fill-rule:evenodd;stroke:none" /><path
         d="M 388.946,604.094 C 390.857,604.094 392.433,603.602 392.433,603.006 C 392.433,598.281 392.423,579.775 392.433,579.775 C 392.433,579.144 390.876,578.439 388.966,578.439 L 388.963,577.607 L 401.732,577.607 L 401.732,578.383 C 399.836,578.383 398.299,579.141 398.299,579.772 L 398.299,604.329 L 401.98,604.329 C 405.526,604.329 408.398,601.384 408.398,598.041 C 408.398,594.698 405.523,591.988 401.977,591.988 L 399.428,591.988 C 399.428,591.988 408.06,578.92 408.072,578.92 C 408.412,578.425 408.581,577.607 408.581,577.607 L 417.886,577.607 L 417.886,578.383 C 416.096,578.383 415.158,579.127 414.64,579.775 L 406.329,590.616 C 410.317,590.879 413.406,594.106 413.406,597.932 C 413.406,601.93 409.972,605.159 405.731,605.159 L 388.946,605.159 L 388.946,604.094"
         id="path6657"
         style="fill:#000000;fill-opacity:1;fill-rule:nonzero;stroke:none" /><path
         d="M 436.865,578.439 C 438.476,578.439 440.042,579.135 439.689,579.753 L 436.603,585.876 L 425.742,585.876 L 422.911,579.736 C 422.613,579.047 423.855,578.383 425.02,578.383 L 425.02,577.607 L 418.755,577.607 L 418.755,578.439 C 420.365,578.439 421.498,579.174 421.704,579.731 L 433.476,605.159 L 446.322,579.753 C 446.732,579.085 447.937,578.411 449.911,578.411 L 449.908,577.607 L 436.865,577.607 L 436.865,578.439 z M 426.213,586.869 L 430.913,597.181 L 436.159,586.869 L 426.213,586.869"
         id="path6659"
         style="fill:#000000;fill-opacity:1;fill-rule:evenodd;stroke:none" /></g></g></svg>